<?xml version="1.0" encoding="UTF-8" standalone="no"?>
<!-- Creator: CorelDRAW 2018 (64 Bit) -->

<svg
   xml:space="preserve"
   width="189.75085mm"
   height="176.409mm"
   version="1.1"
   style="clip-rule:evenodd;fill-rule:evenodd;image-rendering:optimizeQuality;shape-rendering:geometricPrecision;text-rendering:geometricPrecision"
   viewBox="0 0 18975.085 17640.9"
   id="svg491"
   sodipodi:docname="yummy_transparent.svg"
   inkscape:version="1.1 (c68e22c387, 2021-05-23)"
   inkscape:export-filename="C:\Users\qbaso\Videos\FeastIceberg\yummy.png"
   inkscape:export-xdpi="100.06919"
   inkscape:export-ydpi="100.06919"
   xmlns:inkscape="http://www.inkscape.org/namespaces/inkscape"
   xmlns:sodipodi="http://sodipodi.sourceforge.net/DTD/sodipodi-0.dtd"
   xmlns="http://www.w3.org/2000/svg"
   xmlns:svg="http://www.w3.org/2000/svg"><sodipodi:namedview
   id="namedview493"
   pagecolor="#ffffff"
   bordercolor="#666666"
   borderopacity="1.0"
   inkscape:pageshadow="2"
   inkscape:pageopacity="0.0"
   inkscape:pagecheckerboard="0"
   inkscape:document-units="mm"
   showgrid="false"
   inkscape:zoom="0.53543895"
   inkscape:cx="553.75127"
   inkscape:cy="327.76846"
   inkscape:window-width="1920"
   inkscape:window-height="1009"
   inkscape:window-x="3352"
   inkscape:window-y="56"
   inkscape:window-maximized="1"
   inkscape:current-layer="Camada_x0020_1" />
 <defs
   id="defs7">
  <style
   type="text/css"
   id="style2">
   <![CDATA[
    .str0 {stroke:#FEFEFE;stroke-width:20;stroke-miterlimit:22.9256}
    .fil0 {fill:none}
    .fil12 {fill:#FEFEFE}
    .fil2 {fill:#FFFCE8}
    .fil1 {fill:#FFFBD6}
    .fil3 {fill:#ACA77B}
    .fil15 {fill:#FFF688}
    .fil23 {fill:#FDE7DC}
    .fil24 {fill:#FCD3C2}
    .fil22 {fill:#968079}
    .fil11 {fill:#F6AFCE}
    .fil16 {fill:#F48884}
    .fil8 {fill:#A45E4D}
    .fil7 {fill:#814B3E}
    .fil18 {fill:#814B3E}
    .fil21 {fill:#CB7246}
    .fil10 {fill:#362120}
    .fil14 {fill:#C7EAFB}
    .fil6 {fill:#CCE7D4}
    .fil19 {fill:#D2E28B}
    .fil20 {fill:#91D8F7}
    .fil13 {fill:#5A8497}
    .fil9 {fill:#9DD3AF}
    .fil4 {fill:#60816E}
    .fil17 {fill:#5CC6D0}
    .fil5 {fill:#362120;fill-rule:nonzero}
   ]]>
  </style>
   <clipPath
   id="id0">
    <path
   d="m 28605.62,2238.05 c 216.32,138.57 359.7,381.03 359.7,657.01 0,310.9 -181.98,579.24 -445.23,704.45 263.25,125.22 445.23,393.59 445.23,704.5 0,310.9 -181.98,579.25 -445.23,704.46 263.25,125.22 445.23,393.59 445.23,704.49 0,310.91 -181.98,579.26 -445.23,704.47 263.25,125.21 445.23,393.58 445.23,704.48 0,310.91 -181.98,579.26 -445.23,704.47 263.25,125.21 445.23,393.58 445.23,704.49 0,310.91 -181.98,579.25 -445.23,704.46 263.25,125.21 445.23,393.58 445.23,704.49 0,310.91 -181.98,579.25 -445.23,704.46 263.25,125.22 445.23,393.59 445.23,704.5 0,310.9 -181.98,579.25 -445.23,704.46 263.25,125.21 445.23,393.58 445.23,704.49 0,310.91 -181.98,579.25 -445.23,704.46 263.25,125.22 445.23,393.59 445.23,704.49 0,310.91 -181.98,579.26 -445.23,704.47 263.25,125.21 445.23,393.58 445.23,704.49 0,310.91 -181.98,579.25 -445.23,704.46 263.25,125.21 445.23,393.58 445.23,704.49 0,310.91 -181.98,579.25 -445.23,704.46 263.25,125.22 445.23,393.59 445.23,704.49 0,310.91 -181.98,579.26 -445.23,704.47 263.25,125.21 445.23,393.58 445.23,704.49 0,310.91 -181.98,579.25 -445.23,704.46 263.25,125.21 445.23,393.58 445.23,704.49 0,310.91 -181.98,579.25 -445.23,704.46 263.25,125.22 445.23,393.58 445.23,704.5 0,310.9 -181.98,579.24 -445.23,704.45 263.25,125.22 445.23,393.59 445.23,704.5 0,310.9 -181.98,579.25 -445.23,704.46 263.25,125.22 445.23,393.59 445.23,704.49 0,310.91 -181.98,579.26 -445.23,704.47 263.25,125.21 445.23,393.58 445.23,704.48 0,285.06 -152.97,534.34 -381.29,670.34 248.36,130.4 417.78,390.77 417.78,690.76 0,430.63 -349.09,779.72 -779.74,779.72 -310.92,0 -579.3,-182 -704.5,-445.25 -125.2,263.26 -393.53,445.25 -704.45,445.25 -310.92,0 -579.3,-182 -704.5,-445.25 -125.2,263.26 -393.54,445.25 -704.45,445.25 -310.92,0 -579.3,-182 -704.51,-445.25 -125.2,263.26 -393.53,445.25 -704.44,445.25 -310.92,0 -579.31,-182 -704.52,-445.25 -125.2,263.25 -393.52,445.25 -704.43,445.25 -310.93,0 -579.31,-182 -704.52,-445.25 -125.2,263.25 -393.53,445.25 -704.44,445.25 -310.92,0 -579.3,-182 -704.51,-445.25 -125.2,263.25 -393.53,445.25 -704.44,445.25 -310.92,0 -579.31,-182 -704.51,-445.25 -125.2,263.26 -393.54,445.25 -704.45,445.25 -310.91,0 -579.3,-182 -704.51,-445.25 -125.2,263.25 -393.53,445.25 -704.44,445.25 -310.92,0 -579.3,-182 -704.51,-445.25 -125.2,263.25 -393.53,445.25 -704.44,445.25 -310.92,0 -579.31,-182 -704.51,-445.25 -125.2,263.26 -393.54,445.25 -704.45,445.25 -310.91,0 -579.3,-182 -704.51,-445.25 -125.2,263.25 -393.53,445.25 -704.44,445.25 -310.92,0 -579.31,-182 -704.51,-445.25 -125.2,263.26 -393.53,445.25 -704.44,445.25 -310.92,0 -579.31,-182 -704.52,-445.25 -125.2,263.25 -393.53,445.25 -704.44,445.25 -310.92,0 -579.3,-182 -704.51,-445.25 -125.2,263.25 -393.53,445.25 -704.44,445.25 -310.92,0 -579.31,-182 -704.51,-445.25 -125.2,263.26 -393.53,445.25 -704.45,445.25 -310.92,0 -579.3,-182 -704.5,-445.25 -125.2,263.26 -393.54,445.25 -704.45,445.25 -310.92,0 -579.3,-182 -704.51,-445.25 -125.2,263.26 -393.53,445.25 -704.44,445.25 -310.92,0 -579.31,-182 -704.52,-445.25 -125.2,263.25 -393.52,445.25 -704.43,445.25 -310.93,0 -579.31,-182 -704.52,-445.25 -125.2,263.25 -393.52,445.25 -704.43,445.25 -430.65,0 -779.74,-349.09 -779.74,-779.72 0,-290.03 158.35,-543.06 393.29,-677.38 -241.18,-132.59 -404.64,-389.05 -404.64,-683.72 0,-310.89 181.96,-579.24 445.18,-704.46 -263.22,-125.23 -445.18,-393.59 -445.18,-704.49 0,-310.89 181.96,-579.24 445.18,-704.47 -263.22,-125.23 -445.18,-393.59 -445.18,-704.48 0,-310.9 181.96,-579.25 445.18,-704.48 -263.22,-125.22 -445.18,-393.58 -445.18,-704.47 0,-310.9 181.96,-579.26 445.18,-704.48 -263.22,-125.22 -445.18,-393.58 -445.18,-704.48 0,-310.9 181.96,-579.25 445.18,-704.47 -263.22,-125.22 -445.18,-393.58 -445.18,-704.48 0,-310.9 181.96,-579.25 445.18,-704.47 -263.22,-125.23 -445.18,-393.59 -445.18,-704.49 0,-310.89 181.96,-579.24 445.18,-704.47 -263.22,-125.22 -445.18,-393.58 -445.18,-704.48 0,-310.9 181.96,-579.25 445.18,-704.47 -263.22,-125.22 -445.18,-393.58 -445.18,-704.48 0,-310.9 181.96,-579.25 445.18,-704.47 -263.22,-125.23 -445.18,-393.59 -445.18,-704.49 0,-310.89 181.96,-579.24 445.18,-704.47 -263.22,-125.22 -445.18,-393.58 -445.18,-704.48 0,-310.9 181.96,-579.25 445.18,-704.47 -263.22,-125.23 -445.18,-393.59 -445.18,-704.48 0,-310.9 181.96,-579.25 445.18,-704.48 -263.22,-125.22 -445.18,-393.58 -445.18,-704.48 0,-310.9 181.96,-579.25 445.18,-704.47 -263.22,-125.22 -445.18,-393.58 -445.18,-704.48 0,-310.9 181.96,-579.25 445.18,-704.47 -263.22,-125.22 -445.18,-393.59 -445.18,-704.49 0,-310.89 181.96,-579.24 445.18,-704.46 -263.22,-125.23 -445.18,-393.59 -445.18,-704.49 0,-310.89 181.96,-579.24 445.18,-704.47 -263.22,-125.23 -445.18,-393.59 -445.18,-704.48 0,-310.9 181.96,-579.25 445.18,-704.48 -263.22,-125.22 -445.18,-393.58 -445.18,-704.47 0,-285.82 153.8,-535.66 383.12,-671.42 -223.04,-137.2 -371.77,-383.5 -371.77,-664.57 0,-430.65 349.09,-779.74 779.74,-779.74 310.89,0 579.24,181.98 704.46,445.21 125.22,-263.24 393.58,-445.21 704.49,-445.21 310.89,0 579.24,181.98 704.46,445.21 125.22,-263.24 393.59,-445.21 704.49,-445.21 310.89,0 579.26,181.98 704.47,445.21 125.22,-263.24 393.58,-445.21 704.48,-445.21 310.9,0 579.27,181.98 704.48,445.21 125.22,-263.24 393.57,-445.21 704.47,-445.21 310.91,0 579.26,181.98 704.48,445.21 125.22,-263.24 393.58,-445.21 704.48,-445.21 310.9,0 579.25,181.98 704.47,445.21 125.22,-263.24 393.58,-445.21 704.48,-445.21 310.9,0 579.25,181.98 704.47,445.21 125.22,-263.24 393.59,-445.21 704.49,-445.21 310.89,0 579.26,181.98 704.47,445.21 125.22,-263.24 393.58,-445.21 704.48,-445.21 310.9,0 579.25,181.98 704.47,445.21 125.22,-263.24 393.58,-445.21 704.48,-445.21 310.9,0 579.27,181.98 704.48,445.21 125.22,-263.24 393.58,-445.21 704.48,-445.21 310.9,0 579.25,181.98 704.47,445.21 125.22,-263.24 393.58,-445.21 704.48,-445.21 310.9,0 579.25,181.98 704.47,445.21 125.22,-263.24 393.58,-445.21 704.48,-445.21 310.9,0 579.27,181.98 704.48,445.21 125.22,-263.24 393.58,-445.21 704.48,-445.21 310.9,0 579.25,181.98 704.47,445.21 125.22,-263.24 393.58,-445.21 704.48,-445.21 310.9,0 579.25,181.98 704.47,445.21 125.22,-263.24 393.58,-445.21 704.49,-445.21 310.89,0 579.24,181.98 704.46,445.21 125.22,-263.24 393.59,-445.21 704.49,-445.21 310.89,0 579.26,181.98 704.47,445.21 125.22,-263.24 393.58,-445.21 704.48,-445.21 310.9,0 579.27,181.98 704.48,445.21 125.22,-263.24 393.57,-445.21 704.47,-445.21 310.91,0 579.26,181.98 704.48,445.21 125.22,-263.24 393.57,-445.21 704.47,-445.21 430.65,0 779.74,349.09 779.74,779.74 0,291.2 -159.65,545.08 -396.19,678.98 z"
   id="path4" />
   </clipPath>
 <filter
   inkscape:collect="always"
   style="color-interpolation-filters:sRGB"
   id="filter4950"
   x="-0.025448827"
   y="-0.038174785"
   width="1.0508977"
   height="1.0763496"><feGaussianBlur
     inkscape:collect="always"
     stdDeviation="38.432534"
     id="feGaussianBlur4952" /></filter></defs>
 <g
   id="Camada_x0020_1"
   inkscape:label="Camada 1"
   inkscape:groupmode="layer"
   transform="translate(-21274.814,-15273.163)">
  <metadata
   id="CorelCorpID_0Corel-Layer" />
  
  
  
  
  
  
  
  
  
  
 <path
   class="fil3"
   d="m 28828.594,29057.776 c 1914.41,0 3466.35,106.06 3466.35,236.9 0,130.84 -1551.94,236.9 -3466.35,236.9 -1914.41,0 -3466.34,-106.06 -3466.34,-236.9 0,-130.84 1551.93,-236.9 3466.34,-236.9 z"
   id="path63"
   style="clip-rule:evenodd;fill:#aca77b;fill-rule:evenodd;image-rendering:optimizeQuality;shape-rendering:geometricPrecision;text-rendering:geometricPrecision" /><g
   id="_2465967790160"
   style="clip-rule:evenodd;fill-rule:evenodd;image-rendering:optimizeQuality;shape-rendering:geometricPrecision;text-rendering:geometricPrecision"
   transform="translate(14067.154,6895.996)"><path
     class="fil21"
     d="m 11691.77,14229.41 c 177.11,0 320.68,143.57 320.68,320.67 0,177.11 -143.57,320.68 -320.68,320.68 -177.09,0 -320.68,-143.57 -320.68,-320.68 0,-177.1 143.59,-320.67 320.68,-320.67 z"
     id="path321" /><path
     class="fil5"
     d="m 11692.13,14190.32 c 99.28,0 189.24,40.28 254.38,105.42 65.02,65.03 105.27,154.86 105.27,254.04 0,99.37 -40.31,189.36 -105.44,254.5 -65.22,65.23 -155.37,105.57 -254.93,105.57 -99.29,0 -189.24,-40.31 -254.36,-105.44 -65.03,-65.01 -105.28,-154.87 -105.28,-254.03 0,-99.36 40.31,-189.36 105.45,-254.5 65.22,-65.2 155.35,-105.56 254.91,-105.56 z m 198.42,160.6 c -50.91,-50.92 -121.33,-82.42 -199.14,-82.42 -77.52,0 -147.76,31.47 -198.58,82.28 -50.91,50.91 -82.41,121.27 -82.41,199 0,77.92 31.57,148.45 82.59,199.46 50.91,50.91 121.33,82.42 199.12,82.42 77.53,0 147.76,-31.44 198.6,-82.27 50.9,-50.9 82.4,-121.28 82.4,-199.01 0,-77.91 -31.57,-148.45 -82.58,-199.46 z"
     id="path323" /><path
     class="fil21"
     d="m 12620.06,13081.72 c 177.1,0 320.68,143.57 320.68,320.68 0,177.1 -143.58,320.68 -320.68,320.68 -177.1,0 -320.68,-143.58 -320.68,-320.68 0,-177.11 143.58,-320.68 320.68,-320.68 z"
     id="path325"
     style="fill:#f48884;fill-opacity:1" /><path
     class="fil5"
     d="m 12620.42,13042.63 c 99.29,0 189.24,40.31 254.37,105.44 65.03,65.01 105.28,154.87 105.28,254.03 0,99.36 -40.31,189.36 -105.45,254.5 -65.22,65.22 -155.36,105.57 -254.92,105.57 -99.27,0 -189.25,-40.29 -254.36,-105.43 -65.03,-65.03 -105.28,-154.86 -105.28,-254.04 0,-99.37 40.3,-189.36 105.44,-254.5 65.22,-65.23 155.35,-105.57 254.92,-105.57 z m 198.41,160.61 c -50.91,-50.91 -121.33,-82.42 -199.13,-82.42 -77.53,0 -147.76,31.44 -198.59,82.27 -50.9,50.9 -82.4,121.28 -82.4,199.01 0,77.91 31.57,148.45 82.59,199.46 50.9,50.92 121.32,82.43 199.12,82.43 77.53,0 147.75,-31.46 198.58,-82.29 50.92,-50.91 82.42,-121.27 82.42,-199 0,-77.92 -31.57,-148.45 -82.59,-199.46 z"
     id="path327" /><path
     class="fil21"
     d="m 13869.02,12440.37 c 177.1,0 320.68,143.57 320.68,320.68 0,177.09 -143.58,320.67 -320.68,320.67 -177.11,0 -320.68,-143.58 -320.68,-320.67 0,-177.11 143.57,-320.68 320.68,-320.68 z"
     id="path329"
     style="fill:#5cc6d0;fill-opacity:1" /><path
     class="fil5"
     d="m 13869.38,12401.27 c 99.29,0 189.24,40.31 254.37,105.44 65.02,65.01 105.27,154.87 105.27,254.03 0,99.36 -40.3,189.36 -105.45,254.5 -65.22,65.22 -155.35,105.58 -254.91,105.58 -99.28,0 -189.25,-40.3 -254.37,-105.44 -65.02,-65.03 -105.27,-154.86 -105.27,-254.03 0,-99.38 40.29,-189.37 105.44,-254.51 65.22,-65.22 155.35,-105.57 254.92,-105.57 z m 198.41,160.61 c -50.92,-50.91 -121.33,-82.42 -199.13,-82.42 -77.54,0 -147.76,31.44 -198.59,82.27 -50.9,50.91 -82.4,121.28 -82.4,199.01 0,77.91 31.57,148.45 82.58,199.47 50.91,50.91 121.32,82.42 199.13,82.42 77.53,0 147.75,-31.45 198.58,-82.28 50.91,-50.92 82.41,-121.28 82.41,-199 0,-77.92 -31.56,-148.46 -82.58,-199.47 z"
     id="path331" /><path
     class="fil21"
     d="m 16417.56,12600.7 c 177.11,0 320.68,143.57 320.68,320.68 0,177.1 -143.57,320.67 -320.68,320.67 -177.1,0 -320.67,-143.57 -320.67,-320.67 0,-177.11 143.57,-320.68 320.67,-320.68 z"
     id="path333" /><path
     class="fil5"
     d="m 16417.92,12561.61 c 99.3,0 189.24,40.28 254.38,105.42 65.02,65.03 105.26,154.86 105.26,254.05 0,99.36 -40.31,189.35 -105.43,254.49 -65.23,65.23 -155.37,105.57 -254.93,105.57 -99.29,0 -189.23,-40.31 -254.37,-105.43 -65.01,-65.02 -105.26,-154.85 -105.26,-254.03 0,-99.36 40.29,-189.37 105.44,-254.51 65.22,-65.2 155.35,-105.56 254.91,-105.56 z m 198.42,160.6 c -50.91,-50.92 -121.32,-82.42 -199.14,-82.42 -77.53,0 -147.76,31.47 -198.58,82.28 -50.9,50.9 -82.4,121.28 -82.4,199.01 0,77.91 31.57,148.44 82.57,199.46 50.92,50.9 121.33,82.41 199.13,82.41 77.53,0 147.76,-31.44 198.59,-82.27 50.9,-50.9 82.4,-121.28 82.4,-199 0,-77.93 -31.55,-148.46 -82.57,-199.47 z"
     id="path335" /><path
     class="fil21"
     d="m 17371.17,13182.98 c 177.09,0 320.68,143.57 320.68,320.68 0,177.1 -143.59,320.68 -320.68,320.68 -177.11,0 -320.68,-143.58 -320.68,-320.68 0,-177.11 143.57,-320.68 320.68,-320.68 z"
     id="path337" /><path
     class="fil5"
     d="m 17371.53,13143.89 c 99.29,0 189.24,40.31 254.37,105.44 65.02,65.01 105.27,154.87 105.27,254.03 0,99.36 -40.31,189.36 -105.45,254.5 -65.22,65.22 -155.35,105.57 -254.91,105.57 -99.28,0 -189.25,-40.29 -254.37,-105.43 -65.02,-65.03 -105.28,-154.86 -105.28,-254.04 0,-99.37 40.31,-189.36 105.44,-254.51 65.22,-65.22 155.37,-105.56 254.93,-105.56 z m 198.4,160.61 c -50.91,-50.91 -121.33,-82.42 -199.12,-82.42 -77.53,0 -147.76,31.44 -198.59,82.27 -50.91,50.9 -82.41,121.27 -82.41,199.01 0,77.91 31.57,148.45 82.59,199.46 50.9,50.92 121.32,82.43 199.13,82.43 77.52,0 147.75,-31.46 198.58,-82.29 50.91,-50.91 82.41,-121.27 82.41,-199 0,-77.92 -31.57,-148.45 -82.59,-199.46 z"
     id="path339" /><path
     class="fil21"
     d="m 18333.2,14837.01 c 177.11,0 320.68,143.57 320.68,320.68 0,177.1 -143.57,320.68 -320.68,320.68 -177.09,0 -320.68,-143.58 -320.68,-320.68 0,-177.11 143.59,-320.68 320.68,-320.68 z"
     id="path341"
     style="fill:#fff688;fill-opacity:1" /><path
     class="fil5"
     d="m 18333.56,14797.92 c 99.3,0 189.24,40.31 254.38,105.42 65.03,65.03 105.27,154.89 105.27,254.05 0,99.36 -40.31,189.35 -105.45,254.49 -65.2,65.23 -155.36,105.58 -254.92,105.58 -99.29,0 -189.24,-40.31 -254.36,-105.44 -65.03,-65.02 -105.28,-154.85 -105.28,-254.03 0,-99.36 40.31,-189.37 105.45,-254.5 65.22,-65.22 155.35,-105.57 254.91,-105.57 z m 198.42,160.6 c -50.91,-50.9 -121.33,-82.42 -199.14,-82.42 -77.52,0 -147.75,31.46 -198.58,82.29 -50.9,50.9 -82.41,121.27 -82.41,199 0,77.91 31.57,148.44 82.59,199.46 50.91,50.91 121.33,82.42 199.12,82.42 77.53,0 147.78,-31.46 198.58,-82.28 50.92,-50.91 82.42,-121.28 82.42,-199 0,-77.92 -31.56,-148.46 -82.58,-199.47 z"
     id="path343" /><path
     class="fil22"
     d="m 13944.36,20817.17 c -98.32,85.91 -1707.02,920.65 -1918.96,678.11 -329.48,-377.07 746.55,-1406.27 1050.56,-1671.92 274.43,-239.8 691.3,-211.73 931.1,62.7 239.81,274.44 211.74,691.31 -62.7,931.11 z"
     id="path345" /><path
     class="fil5"
     d="m 14018.31,20901.69 c -66.36,57.98 -767.69,433.1 -1316.22,626.92 -344.56,121.76 -647.07,171.23 -761.2,40.61 -212.5,-243.18 -12.68,-644.72 283.73,-1021.21 267.33,-339.57 613.97,-665.84 771.75,-804.24 4.13,-4.29 8.59,-8.09 13.24,-11.49 159.48,-135.82 358.46,-195.7 552.37,-182.66 194.78,13.12 384.7,99.77 524.62,256.88 l 0.12,-0.11 c 4.21,4.21 8.01,8.67 11.41,13.32 135.81,159.48 195.71,358.47 182.66,552.37 -13.26,197.1 -101.82,389.21 -262.48,529.61 z m -1391.05,414.75 c 526.81,-186.15 1183.89,-532.02 1243.15,-583.79 113.75,-99.4 176.48,-235.65 185.89,-375.52 9.25,-137.47 -32.9,-278.3 -128.49,-390.99 l -5.24,-6.09 c -99.44,-113.8 -235.68,-176.52 -375.55,-185.94 -137.47,-9.25 -278.29,32.89 -390.98,128.49 l -6.12,5.27 c -149.02,130.2 -487.28,447.62 -748.34,779.24 -235.2,298.74 -408.62,600.34 -291.65,734.21 38.93,44.56 253.96,-11.82 517.33,-104.88 z"
     id="path347" /><path
     class="fil22"
     d="m 15238,20468.24 c -8.38,130.3 307.61,1914.91 629.04,1935.59 499.71,32.16 662.08,-1447.95 688,-1850.84 23.41,-363.7 -252.45,-677.49 -616.14,-700.9 -363.7,-23.4 -677.49,252.45 -700.9,616.15 z"
     id="path349" /><path
     class="fil5"
     d="m 15350.25,20475.27 c -5.06,78.68 120.02,810.98 292.64,1342.13 86.29,265.54 172.27,470.41 231.19,474.19 125.7,8.08 232.39,-161.31 318.79,-393.78 166.34,-447.48 234.05,-1105.14 249.93,-1351.86 9.7,-150.85 -42.67,-291.39 -135.18,-396.62 -92.58,-105.31 -225.15,-175.3 -375.76,-184.99 -150.85,-9.7 -291.39,42.67 -396.62,135.18 -105.31,92.57 -175.3,225.15 -184.99,375.75 z m 78.71,1411.68 c -179.88,-553.49 -308.85,-1337.96 -303.2,-1425.75 13.7,-213.08 112.34,-400.3 260.7,-530.72 148.4,-130.46 346.65,-204.33 559.48,-190.63 213.07,13.7 400.3,112.34 530.72,260.7 130.45,148.4 204.32,346.65 190.63,559.48 -16.49,256.3 -87.51,941.36 -264,1416.13 -119.9,322.58 -293.5,555.98 -543.29,539.92 -173.23,-11.13 -318.06,-281.44 -431.04,-629.13 z"
     id="path351" /><path
     class="fil23"
     d="m 9813.72,18193.41 c 111.82,-67.41 1841.68,-608.03 2007.95,-332.17 258.49,428.87 -980.91,1254.09 -1326.68,1462.49 -312.13,188.14 -717.67,87.61 -905.8,-224.52 -188.13,-312.14 -87.61,-717.67 224.53,-905.8 z"
     id="path353" /><path
     class="fil5"
     d="m 9770.82,18089.21 c 102.39,-47.65 552.02,-195.39 1000.93,-300.21 507.77,-118.57 1030.24,-178.44 1146.32,14.13 166.64,276.53 -100.44,637.04 -458.27,956.06 -327.13,291.66 -730.65,554.84 -906.66,660.91 -182.62,110.08 -392.57,135.68 -584.4,88.14 -190.21,-47.15 -362.55,-166.05 -472.74,-345.67 -2.37,-3.5 -4.54,-7.09 -6.48,-10.76 -107.26,-181.29 -131.9,-388.94 -84.83,-578.84 47.13,-190.24 166.03,-362.53 345.66,-472.73 6.5,-4.43 13.37,-8.11 20.47,-11.03 z m 1051.98,-81 c -456.9,106.68 -899.43,250.65 -950.9,281.55 -129.63,78.13 -215.24,201.14 -248.88,336.9 -33.7,135.93 -15.52,284.77 62.45,414.26 l 0.12,0.19 c 78.08,129.55 201.11,215.16 336.84,248.8 135.92,33.68 284.73,15.53 414.23,-62.43 l 0.27,-0.18 c 169.83,-102.35 558.91,-356.03 873.21,-636.25 283.63,-252.86 506.94,-519.38 415.14,-671.71 -50.19,-83.27 -475.81,-10.76 -902.48,88.87 z"
     id="path355" /><path
     class="fil5"
     d="m 10314.47,18903.15 c 14.67,-2.38 29,7.98 31.99,23.12 3,15.14 -6.47,29.37 -21.13,31.75 -58.2,9.33 -115.37,2.75 -167.03,-16.53 -48.55,-18.12 -92.29,-47.55 -127.49,-85.55 l -123.28,19.77 c -64.54,10.35 -112.73,-28.75 -139.59,-84.38 -9.66,-20.02 -16.47,-42.26 -20.09,-64.85 -3.67,-22.68 -4.18,-45.81 -1.31,-67.62 l 0.42,-2.4 c 8.53,-59.26 41.49,-109.48 104.16,-119.54 l 110.98,-17.81 c 19.05,-52.76 51.32,-99.85 93.4,-136.55 44.68,-38.96 100.45,-66.3 163.21,-76.36 14.66,-2.38 29,7.98 31.99,23.12 3,15.14 -6.47,29.37 -21.13,31.75 -53.1,8.51 -100.24,31.59 -137.93,64.46 -38.57,33.63 -67.32,77.52 -82.56,126.54 -2.46,9.91 -10.32,17.76 -20.88,19.47 l -126.22,20.25 c -36.45,5.85 -56.04,37.39 -61.52,74.93 l -0.18,1.91 c -2.18,16.56 -1.8,34.11 0.95,51.25 2.71,17.1 7.78,33.75 14.92,48.55 16.43,34.04 44.46,58.19 80.52,52.41 l 138.06,-22.14 c 9.16,-1.44 19.02,2.01 25.67,9.96 30.38,36.23 69.89,64.15 114.36,80.76 43.1,16.08 90.91,21.54 139.71,13.73 z"
     id="path357" /><path
     class="fil23"
     d="m 20050.34,18692.74 c -86.05,-98.21 -1569.68,-1139.14 -1811.94,-926.88 -376.63,329.99 553.23,1492.94 819.28,1796.6 240.17,274.11 657.07,301.64 931.19,61.47 274.11,-240.17 301.64,-657.07 61.47,-931.19 z"
     id="path359" /><path
     class="fil5"
     d="m 19965.82,18766.69 c -39.28,-44.84 -417.32,-316.66 -820.53,-557.42 -376.19,-224.62 -759.68,-423.07 -832.94,-358.89 -94.55,82.85 -50.47,278.11 52.43,503.77 198.33,434.91 614.56,948.47 777.42,1134.36 99.51,113.57 235.69,176.08 375.38,185.29 140.14,9.25 283.68,-34.82 397.33,-134.39 113.58,-99.51 176.09,-235.7 185.31,-375.39 9.25,-140.15 -34.84,-283.7 -134.4,-397.33 z m -705.21,-750.21 c 420.67,251.18 827.51,548.95 874.24,602.31 140.58,160.43 202.85,362.45 189.86,559.31 -13.03,197.3 -101.37,389.7 -261.9,530.35 -160.46,140.59 -362.48,202.83 -559.31,189.84 -197.3,-13.02 -389.7,-101.36 -530.34,-261.88 -169.31,-193.24 -602.69,-728.64 -812.61,-1188.95 -142.78,-313.11 -184.5,-601.03 3.9,-766.12 169,-148.06 648.48,67.83 1096.16,335.14 z"
     id="path361" /><path
     class="fil5"
     d="m 19330.49,19265.62 c -13.24,-6.73 -17.94,-23.15 -10.49,-36.67 7.46,-13.53 24.27,-19.02 37.51,-12.3 44.09,22.29 91.33,31.6 137.27,29.38 47.44,-2.29 93.55,-16.88 133.5,-42.15 8.74,-5.55 19.19,-5.84 27.46,-1.65 l 124.82,63.04 c 32.57,16.46 66.65,1.98 92.64,-25.45 11.26,-11.88 21.14,-26.23 28.98,-41.74 l 0.69,-1.29 c 7.54,-15.17 13.03,-31.28 15.86,-47.15 6.83,-38.14 -1.96,-75.1 -35.48,-92.05 l -114.1,-57.66 c -9.52,-4.84 -14.63,-14.69 -13.97,-24.88 0.4,-51.33 -13.66,-101.89 -40.19,-145.68 -25.91,-42.76 -63.8,-79.08 -111.78,-103.33 -13.25,-6.72 -17.95,-23.15 -10.49,-36.67 7.45,-13.52 24.26,-19.02 37.51,-12.3 56.73,28.68 101.56,71.66 132.27,122.37 28.93,47.75 45.34,102.42 47.45,158.48 l 100.32,50.7 c 57.4,29.01 73.21,88.04 62.48,147.89 -3.81,21.24 -11.06,42.63 -20.97,62.57 l -0.68,1.46 c -10.3,20.39 -23.56,39.52 -38.93,55.74 -42.49,44.84 -100.29,67.43 -158.63,37.96 l -111.42,-56.32 c -45.11,25.5 -95.71,40.23 -147.48,42.73 -55.07,2.67 -111.54,-8.44 -164.15,-35.03 z"
     id="path363" /><path
     class="fil8"
     d="m 14974.16,12620.54 c -2008.02,-45.13 -3672.43,1546.1 -3717.56,3554.13 -45.13,2008.02 1546.1,3672.42 3554.13,3717.56 2008.02,45.12 3672.42,-1546.1 3717.56,-3554.13 45.12,-2008.02 -1546.1,-3672.43 -3554.13,-3717.56 z"
     id="path365" /><path
     class="fil5"
     d="m 14974.16,12733.23 c -3.93,0 -7.81,-0.2 -11.62,-0.59 -969.41,-19.24 -1855.73,355 -2505.77,976.46 -651.4,622.76 -1065.42,1493.77 -1087.86,2465.54 h 0.38 c 0,3.94 -0.2,7.82 -0.59,11.64 -19.25,969.42 355,1855.75 976.46,2505.77 623.25,651.92 1495.11,1066.07 2467.77,1087.93 973.09,21.86 1863.05,-352.83 2515.2,-976.32 651.89,-623.23 1066.06,-1495.08 1087.91,-2467.76 21.87,-973.1 -352.85,-1863.06 -976.32,-2515.19 -622.75,-651.41 -1493.77,-1065.43 -2465.56,-1087.86 z m -0.02,-225.37 0.02,0.4 2.17,0.04 c 1035.36,23.25 1963.18,463.89 2626.25,1157.47 662.84,693.31 1061.2,1639.64 1037.95,2674.53 -23.25,1035.34 -463.9,1963.14 -1157.46,2626.22 -693.34,662.85 -1639.64,1061.2 -2674.54,1037.95 -1035.33,-23.27 -1963.14,-463.9 -2626.23,-1157.48 -660.69,-691.06 -1058.55,-1633.5 -1038.1,-2664.46 l -0.28,-7.86 0.4,-0.03 0.04,-2.16 c 23.27,-1035.35 463.9,-1963.15 1157.47,-2626.24 691.08,-660.69 1633.5,-1058.55 2664.45,-1038.1 z"
     id="path367" /><path
     class="fil21"
     d="m 14143.61,14795.72 c 253.69,0 459.36,205.66 459.36,459.35 0,253.67 -205.67,459.34 -459.36,459.34 -253.67,0 -459.34,-205.67 -459.34,-459.34 0,-253.69 205.67,-459.35 459.34,-459.35 z"
     id="path369" /><path
     class="fil5"
     d="m 14144.12,14739.72 c 142.24,0 271.08,57.72 364.38,151.02 93.17,93.16 150.8,221.84 150.8,363.89 0,142.34 -57.75,271.25 -151.04,364.55 -93.42,93.43 -222.55,151.23 -365.16,151.23 -142.2,0 -271.07,-57.72 -364.36,-151.02 -93.17,-93.16 -150.8,-221.83 -150.8,-363.88 0,-142.34 57.72,-271.25 151.04,-364.56 93.42,-93.41 222.53,-151.23 365.14,-151.23 z m 284.23,230.06 c -72.95,-72.93 -173.81,-118.07 -285.25,-118.07 -111.06,0 -211.64,45.06 -284.45,117.86 -72.93,72.93 -118.05,173.73 -118.05,285.06 0,111.62 45.21,212.64 118.29,285.72 72.94,72.94 173.8,118.07 285.23,118.07 111.07,0 211.65,-45.05 284.47,-117.86 72.92,-72.93 118.05,-173.72 118.05,-285.05 0,-111.62 -45.21,-212.65 -118.29,-285.73 z"
     id="path371" /><path
     class="fil21"
     d="m 14906.31,12386.31 c 253.69,0 459.36,205.65 459.36,459.34 0,253.68 -205.67,459.34 -459.36,459.34 -253.67,0 -459.34,-205.66 -459.34,-459.34 0,-253.69 205.67,-459.34 459.34,-459.34 z"
     id="path373"
     style="fill:#fff688;fill-opacity:1" /><path
     class="fil5"
     d="m 14906.82,12330.31 c 142.23,0 271.09,57.72 364.38,151.01 93.17,93.16 150.8,221.83 150.8,363.89 0,142.34 -57.73,271.25 -151.04,364.55 -93.42,93.42 -222.54,151.22 -365.15,151.22 -142.24,0 -271.08,-57.72 -364.37,-151.01 -93.17,-93.16 -150.8,-221.83 -150.8,-363.88 0,-142.35 57.73,-271.26 151.04,-364.56 93.42,-93.42 222.53,-151.22 365.14,-151.22 z m 284.23,230.06 c -72.94,-72.94 -173.8,-118.07 -285.24,-118.07 -111.07,0 -211.64,45.04 -284.46,117.86 -72.93,72.92 -118.05,173.72 -118.05,285.05 0,111.62 45.22,212.66 118.29,285.71 72.95,72.95 173.8,118.07 285.23,118.07 111.07,0 211.66,-45.04 284.47,-117.86 72.93,-72.92 118.05,-173.71 118.05,-285.04 0,-111.62 -45.22,-212.66 -118.29,-285.72 z"
     id="path375" /><path
     class="fil21"
     d="m 14576.97,13495.69 c 253.68,0 459.35,205.65 459.35,459.34 0,253.68 -205.67,459.34 -459.35,459.34 -253.68,0 -459.35,-205.66 -459.35,-459.34 0,-253.69 205.67,-459.34 459.35,-459.34 z"
     id="path377"
     style="fill:#d2e28b;fill-opacity:1" /><path
     class="fil5"
     d="m 14577.47,13439.69 c 142.23,0 271.09,57.72 364.38,151.01 93.17,93.16 150.8,221.83 150.8,363.89 0,142.34 -57.73,271.26 -151.04,364.55 -93.42,93.42 -222.54,151.22 -365.15,151.22 -142.24,0 -271.08,-57.72 -364.37,-151.01 -93.17,-93.16 -150.8,-221.83 -150.8,-363.88 0,-142.35 57.74,-271.26 151.04,-364.56 93.42,-93.42 222.54,-151.22 365.14,-151.22 z m 284.23,230.06 c -72.94,-72.94 -173.8,-118.07 -285.24,-118.07 -111.07,0 -211.64,45.04 -284.46,117.86 -72.93,72.92 -118.04,173.72 -118.04,285.05 0,111.62 45.21,212.66 118.28,285.71 72.95,72.95 173.8,118.07 285.23,118.07 111.07,0 211.66,-45.04 284.47,-117.86 72.93,-72.92 118.05,-173.71 118.05,-285.04 0,-111.62 -45.22,-212.66 -118.29,-285.72 z"
     id="path379" /><path
     class="fil21"
     d="m 15513.01,13513.02 c 177.1,0 320.68,143.57 320.68,320.66 0,177.11 -143.58,320.68 -320.68,320.68 -177.11,0 -320.68,-143.57 -320.68,-320.68 0,-177.09 143.57,-320.66 320.68,-320.66 z"
     id="path381" /><path
     class="fil5"
     d="m 15513.37,13473.92 c 99.29,0 189.23,40.31 254.37,105.43 65.02,65.02 105.28,154.86 105.28,254.03 0,99.36 -40.31,189.37 -105.45,254.5 -65.23,65.22 -155.36,105.57 -254.92,105.57 -99.28,0 -189.24,-40.3 -254.38,-105.42 -65.01,-65.03 -105.26,-154.88 -105.26,-254.05 0,-99.36 40.31,-189.35 105.44,-254.49 65.22,-65.22 155.36,-105.57 254.92,-105.57 z m 198.41,160.6 c -50.91,-50.9 -121.33,-82.41 -199.13,-82.41 -77.52,0 -147.76,31.44 -198.59,82.27 -50.9,50.9 -82.4,121.28 -82.4,199 0,77.92 31.57,148.46 82.57,199.47 50.92,50.91 121.34,82.42 199.14,82.42 77.53,0 147.75,-31.46 198.58,-82.29 50.9,-50.9 82.42,-121.27 82.42,-199 0,-77.91 -31.57,-148.44 -82.59,-199.46 z"
     id="path383" /><path
     class="fil21"
     d="m 11509.05,14983.65 c 177.1,0 320.68,143.58 320.68,320.68 0,177.11 -143.58,320.68 -320.68,320.68 -177.11,0 -320.68,-143.57 -320.68,-320.68 0,-177.1 143.57,-320.68 320.68,-320.68 z"
     id="path385"
     style="fill:#5cc6d0;fill-opacity:1" /><path
     class="fil5"
     d="m 11509.41,14944.56 c 99.29,0 189.24,40.31 254.37,105.43 65.02,65.03 105.27,154.86 105.27,254.04 0,99.36 -40.3,189.36 -105.45,254.49 -65.22,65.23 -155.35,105.58 -254.91,105.58 -99.3,0 -189.24,-40.29 -254.38,-105.43 -65.02,-65.02 -105.26,-154.85 -105.26,-254.04 0,-99.36 40.31,-189.36 105.45,-254.5 65.2,-65.22 155.35,-105.57 254.91,-105.57 z m 198.41,160.61 c -50.92,-50.92 -121.33,-82.43 -199.13,-82.43 -77.53,0 -147.77,31.47 -198.58,82.29 -50.91,50.91 -82.41,121.27 -82.41,199 0,77.93 31.55,148.45 82.57,199.47 50.91,50.91 121.32,82.41 199.14,82.41 77.53,0 147.75,-31.45 198.58,-82.28 50.9,-50.9 82.41,-121.28 82.41,-199 0,-77.91 -31.56,-148.45 -82.58,-199.46 z"
     id="path387" /><path
     class="fil21"
     d="m 12040.39,14357.45 c 177.09,0 320.67,143.57 320.67,320.67 0,177.1 -143.58,320.68 -320.67,320.68 -177.11,0 -320.68,-143.58 -320.68,-320.68 0,-177.1 143.57,-320.67 320.68,-320.67 z"
     id="path389" /><path
     class="fil5"
     d="m 12040.74,14318.35 c 99.3,0 189.24,40.31 254.37,105.44 65.04,65.03 105.28,154.87 105.28,254.03 0,99.36 -40.31,189.36 -105.45,254.5 -65.22,65.22 -155.36,105.58 -254.91,105.58 -99.28,0 -189.25,-40.3 -254.37,-105.44 -65.03,-65.03 -105.28,-154.86 -105.28,-254.03 0,-99.36 40.3,-189.37 105.44,-254.51 65.22,-65.22 155.36,-105.57 254.92,-105.57 z m 198.41,160.61 c -50.91,-50.91 -121.33,-82.42 -199.12,-82.42 -77.54,0 -147.76,31.44 -198.6,82.27 -50.9,50.91 -82.4,121.29 -82.4,199.01 0,77.91 31.57,148.45 82.59,199.47 50.9,50.91 121.32,82.42 199.12,82.42 77.53,0 147.75,-31.45 198.59,-82.29 50.91,-50.91 82.41,-121.27 82.41,-198.99 0,-77.93 -31.57,-148.46 -82.59,-199.47 z"
     id="path391" /><path
     class="fil21"
     d="m 13970.28,12836.99 c 177.1,0 320.68,143.57 320.68,320.68 0,177.09 -143.58,320.67 -320.68,320.67 -177.1,0 -320.68,-143.58 -320.68,-320.67 0,-177.11 143.58,-320.68 320.68,-320.68 z"
     id="path393"
     style="fill:#f48884;fill-opacity:1" /><path
     class="fil5"
     d="m 13970.64,12797.89 c 99.29,0 189.24,40.31 254.37,105.44 65.02,65.01 105.27,154.87 105.27,254.03 0,99.36 -40.31,189.36 -105.45,254.5 -65.22,65.22 -155.35,105.58 -254.91,105.58 -99.29,0 -189.24,-40.31 -254.37,-105.44 -65.02,-65.03 -105.27,-154.86 -105.27,-254.03 0,-99.36 40.31,-189.37 105.45,-254.5 65.22,-65.22 155.35,-105.58 254.91,-105.58 z m 198.41,160.61 c -50.92,-50.91 -121.34,-82.42 -199.13,-82.42 -77.53,0 -147.75,31.45 -198.58,82.29 -50.9,50.9 -82.41,121.27 -82.41,198.99 0,77.91 31.57,148.45 82.58,199.47 50.92,50.91 121.34,82.42 199.13,82.42 77.53,0 147.75,-31.45 198.58,-82.28 50.91,-50.92 82.41,-121.28 82.41,-199 0,-77.92 -31.57,-148.46 -82.58,-199.47 z"
     id="path395" /><path
     class="fil21"
     d="m 12585.53,15085.65 c 292.66,0 529.92,237.26 529.92,529.92 0,292.65 -237.26,529.91 -529.92,529.91 -292.65,0 -529.91,-237.26 -529.91,-529.91 0,-292.66 237.26,-529.92 529.91,-529.92 z"
     id="path397"
     style="fill:#f48884;fill-opacity:1" /><path
     class="fil5"
     d="m 12586.11,15021.05 c 164.08,0 312.71,66.59 420.35,174.23 107.49,107.49 173.98,255.92 173.98,419.78 0,164.21 -66.6,312.93 -174.24,420.57 -107.78,107.77 -256.72,174.45 -421.25,174.45 -164.08,0 -312.71,-66.59 -420.35,-174.21 -107.46,-107.48 -173.97,-255.92 -173.97,-419.79 0,-164.21 66.6,-312.92 174.24,-420.57 107.77,-107.78 256.72,-174.46 421.24,-174.46 z m 327.9,265.4 c -84.15,-84.14 -200.49,-136.2 -329.06,-136.2 -128.13,0 -244.16,51.96 -328.17,135.97 -84.12,84.14 -136.17,200.41 -136.17,328.84 0,128.78 52.15,245.33 136.44,329.63 84.15,84.14 200.5,136.2 329.06,136.2 128.13,0 244.17,-51.98 328.17,-135.97 84.12,-84.12 136.18,-200.41 136.18,-328.84 0,-128.77 -52.16,-245.34 -136.45,-329.63 z"
     id="path399" /><path
     class="fil21"
     d="m 15721.02,14327.71 c 397.28,0 719.35,322.08 719.35,719.36 0,397.28 -322.07,719.35 -719.35,719.35 -397.28,0 -719.36,-322.07 -719.36,-719.35 0,-397.28 322.08,-719.36 719.36,-719.36 z"
     id="path401"
     style="fill:#f48884;fill-opacity:1" /><path
     class="fil5"
     d="m 15721.53,14271.71 c 214.02,0 407.88,86.82 548.22,227.18 140.22,140.21 226.96,333.9 226.96,547.74 0,214.14 -86.84,408.06 -227.19,548.42 -140.47,140.48 -334.59,227.37 -549.01,227.37 -214.03,0 -407.89,-86.82 -548.23,-227.18 -140.21,-140.21 -226.96,-333.88 -226.96,-547.73 0,-214.16 86.84,-408.07 227.19,-548.43 140.47,-140.48 334.6,-227.37 549.02,-227.37 z m 468.07,306.22 c -119.99,-120 -285.85,-194.23 -469.09,-194.23 -182.85,0 -348.43,74.15 -468.3,194.03 -119.98,119.98 -194.21,285.78 -194.21,468.9 0,183.41 74.32,349.45 194.44,469.57 119.99,120 285.84,194.23 469.09,194.23 182.85,0 348.42,-74.15 468.3,-194.03 119.98,-119.98 194.19,-285.77 194.19,-468.89 0,-183.43 -74.31,-349.46 -194.42,-469.58 z"
     id="path403" /><path
     class="fil21"
     d="m 13190.26,13513.02 c 397.28,0 719.36,322.06 719.36,719.34 0,397.28 -322.08,719.36 -719.36,719.36 -397.28,0 -719.36,-322.08 -719.36,-719.36 0,-397.28 322.08,-719.34 719.36,-719.34 z"
     id="path405"
     style="fill:#5cc6d0;fill-opacity:1" /><path
     class="fil5"
     d="m 13190.77,13457.02 c 214.02,0 407.87,86.81 548.22,227.16 140.23,140.22 226.97,333.9 226.97,547.74 0,214.16 -86.84,408.07 -227.2,548.42 -140.47,140.48 -334.59,227.38 -549.01,227.38 -214.02,0 -407.88,-86.83 -548.22,-227.18 -140.23,-140.21 -226.97,-333.9 -226.97,-547.74 0,-214.14 86.82,-408.07 227.2,-548.42 140.47,-140.47 334.59,-227.36 549.01,-227.36 z m 468.07,306.21 c -119.99,-119.99 -285.85,-194.22 -469.09,-194.22 -182.85,0 -348.44,74.16 -468.3,194.02 -119.99,119.98 -194.21,285.77 -194.21,468.89 0,183.43 74.31,349.46 194.44,469.58 119.99,120 285.85,194.23 469.09,194.23 182.85,0 348.43,-74.15 468.3,-194.04 119.98,-119.97 194.21,-285.77 194.21,-468.89 0,-183.43 -74.31,-349.45 -194.44,-469.57 z"
     id="path407" /><path
     class="fil21"
     d="m 17506.41,15073.07 c 177.11,0 320.68,143.58 320.68,320.67 0,177.11 -143.57,320.68 -320.68,320.68 -177.09,0 -320.67,-143.57 -320.67,-320.68 0,-177.09 143.58,-320.67 320.67,-320.67 z"
     id="path409"
     style="fill:#d2e28b;fill-opacity:1" /><path
     class="fil5"
     d="m 17506.77,15033.97 c 99.28,0 189.26,40.3 254.37,105.44 65.03,65.03 105.28,154.86 105.28,254.03 0,99.38 -40.3,189.37 -105.44,254.51 -65.22,65.22 -155.36,105.57 -254.92,105.57 -99.29,0 -189.24,-40.31 -254.37,-105.44 -65.03,-65.01 -105.28,-154.87 -105.28,-254.03 0,-99.36 40.31,-189.36 105.45,-254.5 65.22,-65.22 155.36,-105.58 254.91,-105.58 z m 198.41,160.61 c -50.9,-50.91 -121.32,-82.42 -199.12,-82.42 -77.53,0 -147.75,31.45 -198.59,82.28 -50.91,50.92 -82.41,121.28 -82.41,199 0,77.92 31.57,148.46 82.59,199.47 50.91,50.91 121.33,82.42 199.12,82.42 77.54,0 147.77,-31.44 198.6,-82.27 50.9,-50.91 82.4,-121.28 82.4,-199.01 0,-77.91 -31.57,-148.45 -82.59,-199.47 z"
     id="path411" /><path
     class="fil21"
     d="m 16804.4,15246.41 c 105.3,0 190.66,85.38 190.66,190.68 0,105.31 -85.36,190.67 -190.66,190.67 -105.31,0 -190.68,-85.36 -190.68,-190.67 0,-105.3 85.37,-190.68 190.68,-190.68 z"
     id="path413" /><path
     class="fil5"
     d="m 16804.76,15207.32 c 63.39,0 120.83,25.76 162.44,67.35 l 0.14,-0.07 c 41.4,41.42 67.05,98.77 67.05,162.19 0,63.46 -25.75,120.96 -67.37,162.58 -41.68,41.68 -99.32,67.49 -162.98,67.49 -63.38,0 -120.85,-25.75 -162.45,-67.36 l -0.14,0.07 c -41.41,-41.42 -67.05,-98.75 -67.05,-162.18 0,-63.46 25.75,-120.96 67.36,-162.58 41.69,-41.68 99.34,-67.49 163,-67.49 z m 106.44,122.49 c -27.39,-27.36 -65.28,-44.3 -107.16,-44.3 -41.63,0 -79.36,16.9 -106.67,44.19 -27.36,27.38 -44.32,65.26 -44.32,107.09 0,41.88 17.07,79.9 44.64,107.47 l -0.11,0.11 c 27.39,27.36 65.28,44.3 107.18,44.3 41.63,0 79.35,-16.9 106.65,-44.2 27.38,-27.38 44.33,-65.26 44.33,-107.08 0,-41.87 -17.08,-79.9 -44.64,-107.48 z"
     id="path415" /><path
     class="fil21"
     d="m 18234.11,15034.23 c 105.3,0 190.67,85.37 190.67,190.67 0,105.31 -85.37,190.68 -190.67,190.68 -105.31,0 -190.68,-85.37 -190.68,-190.68 0,-105.3 85.37,-190.67 190.68,-190.67 z"
     id="path417" /><path
     class="fil5"
     d="m 18234.47,14995.13 c 63.39,0 120.84,25.76 162.45,67.37 41.5,41.5 67.19,98.82 67.19,162.1 0,63.46 -25.76,120.96 -67.36,162.58 -41.69,41.68 -99.34,67.49 -163,67.49 -63.38,0 -120.85,-25.74 -162.45,-67.35 l -0.14,0.07 c -41.41,-41.42 -67.05,-98.76 -67.05,-162.19 0,-63.46 25.76,-120.96 67.36,-162.58 41.69,-41.67 99.34,-67.49 163,-67.49 z m 106.49,122.54 c -27.39,-27.39 -65.3,-44.35 -107.21,-44.35 -41.63,0 -79.36,16.9 -106.66,44.2 -27.37,27.38 -44.33,65.26 -44.33,107.08 0,41.89 17.07,79.9 44.64,107.48 l -0.11,0.1 c 27.39,27.37 65.28,44.3 107.18,44.3 41.63,0 79.35,-16.9 106.66,-44.19 27.37,-27.38 44.33,-65.26 44.33,-107.09 0,-42.02 -17.02,-80.05 -44.5,-107.53 z"
     id="path419" /><path
     class="fil21"
     d="m 13129.55,12937.38 c 105.3,0 190.68,85.37 190.68,190.67 0,105.3 -85.38,190.68 -190.68,190.68 -105.31,0 -190.67,-85.38 -190.67,-190.68 0,-105.3 85.36,-190.67 190.67,-190.67 z"
     id="path421" /><path
     class="fil5"
     d="m 13129.91,12898.28 c 63.39,0 120.85,25.76 162.44,67.36 41.52,41.51 67.2,98.84 67.2,162.11 0,63.46 -25.75,120.96 -67.37,162.57 -41.69,41.7 -99.33,67.5 -162.99,67.5 -63.39,0 -120.84,-25.76 -162.45,-67.35 l -0.14,0.07 c -41.41,-41.42 -67.05,-98.77 -67.05,-162.19 0,-63.46 25.76,-120.96 67.37,-162.58 41.68,-41.67 99.33,-67.49 162.99,-67.49 z m 106.48,122.53 c -27.38,-27.38 -65.29,-44.34 -107.2,-44.34 -41.62,0 -79.35,16.9 -106.66,44.2 -27.37,27.38 -44.33,65.26 -44.33,107.08 0,41.87 17.08,79.9 44.64,107.48 l -0.1,0.1 c 27.39,27.36 65.29,44.3 107.17,44.3 41.63,0 79.36,-16.9 106.66,-44.21 27.37,-27.36 44.33,-65.24 44.33,-107.07 0,-42.02 -17.01,-80.05 -44.51,-107.54 z"
     id="path423" /><path
     class="fil21"
     d="m 12100.46,13724.17 c 123.84,0 224.24,100.4 224.24,224.25 0,123.83 -100.4,224.23 -224.24,224.23 -123.85,0 -224.24,-100.4 -224.24,-224.23 0,-123.85 100.39,-224.25 224.24,-224.25 z"
     id="path425"
     style="fill:#fff688;fill-opacity:1" /><path
     class="fil5"
     d="m 12100.87,13678.2 c 74.7,0 142.33,30.24 191.21,79.12 l 2.87,3.16 c 47.04,48.57 76,114.72 76,187.58 0,74.64 -30.28,142.25 -79.23,191.18 -49.02,49.04 -116.82,79.38 -191.68,79.38 -74.56,0 -142.11,-30.27 -191.05,-79.19 l -0.16,0.08 c -48.71,-48.73 -78.86,-116.16 -78.86,-190.73 0,-74.65 30.29,-142.27 79.22,-191.2 49.04,-49.04 116.82,-79.38 191.68,-79.38 z m 125.09,144.18 c -32.27,-32.26 -76.8,-52.24 -125.92,-52.24 -48.97,0 -93.33,19.88 -125.44,51.99 -32.2,32.19 -52.13,76.74 -52.13,125.93 0,49.26 20.06,93.96 52.49,126.39 l -0.13,0.11 c 32.23,32.2 76.8,52.12 126.04,52.12 48.97,0 93.34,-19.87 125.44,-51.99 32.21,-32.2 52.14,-76.73 52.14,-125.91 0,-48.14 -18.98,-91.83 -49.84,-123.93 z"
     id="path427" /><path
     class="fil21"
     d="m 16858.34,12956.34 c 105.31,0 190.68,85.38 190.68,190.68 0,105.31 -85.37,190.67 -190.68,190.67 -105.3,0 -190.66,-85.36 -190.66,-190.67 0,-105.3 85.36,-190.68 190.66,-190.68 z"
     id="path429"
     style="fill:#d2e28b;fill-opacity:1" /><path
     class="fil5"
     d="m 16858.7,12917.25 c 63.39,0 120.85,25.75 162.45,67.35 l 0.14,-0.07 c 41.41,41.42 67.05,98.77 67.05,162.18 0,63.47 -25.74,120.97 -67.36,162.58 -41.69,41.68 -99.33,67.49 -163,67.49 -63.39,0 -120.84,-25.75 -162.44,-67.35 -41.51,-41.51 -67.19,-98.85 -67.19,-162.11 0,-63.47 25.76,-120.97 67.37,-162.58 41.68,-41.68 99.32,-67.49 162.98,-67.49 z m 106.46,122.49 c -27.39,-27.36 -65.29,-44.31 -107.18,-44.31 -41.62,0 -79.34,16.9 -106.65,44.2 -27.37,27.38 -44.33,65.26 -44.33,107.08 0,42.03 17.01,80.06 44.5,107.55 27.38,27.38 65.3,44.34 107.2,44.34 41.64,0 79.36,-16.9 106.67,-44.2 27.38,-27.38 44.32,-65.26 44.32,-107.08 0,-41.88 -17.07,-79.9 -44.64,-107.48 z"
     id="path431" /><path
     class="fil24"
     d="m 11270.84,15411.63 c 182.04,4.09 341.94,94.07 441.94,230.33 106.01,-131.63 269.8,-214.34 451.83,-210.24 249.27,5.6 457.04,172.21 526.29,398.22 79.33,-222.67 294.39,-379.78 543.65,-374.18 249.27,5.61 457.04,172.22 526.29,398.23 79.33,-222.67 294.39,-379.78 543.65,-374.18 249.26,5.6 457.04,172.21 526.28,398.23 79.34,-222.68 294.4,-379.78 543.65,-374.18 249.27,5.6 457.05,172.21 526.29,398.23 79.33,-222.68 294.4,-379.79 543.65,-374.18 249.27,5.6 457.04,172.21 526.29,398.22 79.33,-222.67 294.39,-379.78 543.65,-374.18 245.12,5.51 450.12,166.73 522.72,387.02 82.42,-216.8 294.48,-368.65 539.59,-363.14 153.36,3.45 290.99,67.86 390.35,169.53 -264.41,1189.08 -567.45,2368.71 -818.85,3560.78 -354.95,1683.06 -158.25,1469.41 -3513.79,1393.99 -3203.74,-72 -3051.59,195.07 -3230.71,-1484.67 -130.48,-1223.69 -317.14,-2438.14 -530.35,-3652.01 103.83,-97.1 244.22,-155.27 397.58,-151.82 z"
     id="path433" /><path
     class="fil5"
     d="m 11273.03,15299.39 c 107.79,2.4 208.62,29.52 297.19,75.66 53.31,27.78 102.45,62.52 146.25,103.01 45.56,-38.5 96.15,-70.98 150.56,-96.3 l 6.47,-2.76 c 89.06,-40.36 188.58,-61.87 293.31,-59.53 147.97,3.32 283.51,53.59 392.6,136.13 51.98,39.32 98.07,86.09 136.77,138.69 40.99,-50.62 89.09,-95.15 142.76,-132.08 112.98,-77.77 250.49,-122.01 397.81,-118.7 147.97,3.33 283.51,53.59 392.6,136.13 51.98,39.33 98.07,86.1 136.77,138.7 40.99,-50.62 89.09,-95.16 142.76,-132.09 112.97,-77.76 250.49,-121.99 397.81,-118.68 147.97,3.32 283.51,53.59 392.6,136.13 51.98,39.32 98.07,86.09 136.77,138.68 40.99,-50.62 89.09,-95.16 142.75,-132.08 112.97,-77.76 250.49,-122 397.81,-118.69 147.99,3.33 283.52,53.59 392.61,136.13 51.98,39.33 98.07,86.1 136.77,138.69 40.98,-50.61 89.08,-95.15 142.75,-132.08 112.98,-77.77 250.5,-122 397.81,-118.69 147.99,3.32 283.52,53.59 392.61,136.13 51.98,39.32 98.07,86.09 136.77,138.68 40.98,-50.61 89.08,-95.14 142.75,-132.07 112.97,-77.76 250.49,-122.01 397.81,-118.7 145.22,3.27 278.68,51.96 387,132.16 52.68,39.01 99.45,85.43 138.78,137.67 41.68,-50.51 90.51,-94.84 144.92,-131.45 111.67,-75.16 246.85,-117.75 391.61,-114.49 90.21,2.02 175.93,21.65 253.9,55.52 81.43,35.36 154.24,85.92 214.81,147.9 28.73,29.54 37.93,70.84 27.86,107.92 -119.1,535.36 -235.84,1027.68 -352.55,1520.05 -161.62,681.7 -323.25,1363.4 -464.68,2034.04 -19.93,94.55 -31.98,152.79 -43.32,207.62 -148.56,718.39 -218.57,1056.9 -629.05,1219.75 -337.22,133.77 -889.25,116.67 -1933.01,84.35 -298.9,-9.25 -638.6,-19.78 -1020.65,-28.36 -438.79,-9.85 -812.76,-13.36 -1133.6,-16.36 -910.07,-8.49 -1401.73,-13.1 -1697.08,-148.84 -380.23,-174.72 -415.03,-510.12 -490.71,-1239.53 -5.17,-49.94 -10.52,-101.51 -18.92,-180.3 -64.85,-608.24 -144.04,-1216.53 -233.72,-1825.29 -89.24,-605.73 -189.11,-1212.02 -295.75,-1819.25 -7.51,-42.98 10.45,-84.54 42.99,-109.2 62.03,-56.08 133.79,-100.63 211.94,-130.48 78.93,-30.12 165.29,-45.77 255.76,-43.74 z m 193.3,275.49 c -59.78,-31.14 -126.91,-49.42 -197.7,-51 -59.93,-1.35 -117.81,9.27 -171.25,29.67 -36.7,14.01 -70.93,32.42 -101.98,54.53 102.35,585.38 198.59,1172.02 285.42,1761.4 89.56,607.86 168.97,1218.66 234.6,1834.09 l 18.93,181.18 c 66.61,642.05 97.25,937.28 360.39,1058.2 252.25,115.93 726.92,120.38 1605.54,128.58 322.92,3.01 699.33,6.54 1136.23,16.36 388.46,8.73 725.7,19.17 1022.42,28.36 1014.04,31.41 1550.35,48.02 1844.1,-68.52 297.76,-118.12 359.89,-418.51 491.71,-1055.99 15.91,-76.96 32.54,-157.36 43.32,-208.49 146.1,-692.78 305.83,-1366.5 465.56,-2040.21 118,-497.7 236.02,-995.5 339.56,-1458.3 -30.32,-24.01 -63.68,-44.14 -99.37,-59.64 -51.98,-22.58 -109.19,-35.68 -169.4,-37.02 -96.94,-2.18 -187.46,26.32 -262.21,76.63 -75.03,50.5 -134.19,123.08 -167.95,208.67 -10.66,33.1 -36.44,60.84 -72.01,72.56 -59.08,19.45 -122.74,-12.68 -142.19,-71.75 -29.53,-89.62 -86.21,-166.94 -160.38,-221.85 -72.24,-53.5 -161.09,-85.98 -257.57,-88.15 -98.63,-2.21 -190.49,27.27 -265.77,79.08 -77.39,53.26 -137.46,130.07 -169.6,220.28 l -0.24,-0.08 c -11.48,32.49 -37.75,59.29 -73.27,70.07 -59.32,17.99 -121.99,-15.51 -139.98,-74.83 -27.92,-91.15 -84.53,-170.49 -159.65,-227.33 -73.15,-55.34 -163.45,-89.03 -261.43,-91.23 -98.62,-2.21 -190.49,27.26 -265.77,79.08 -77.39,53.26 -137.46,130.07 -169.6,220.27 l -0.24,-0.08 c -11.48,32.5 -37.75,59.3 -73.27,70.07 -59.31,17.99 -121.99,-15.51 -139.98,-74.83 -27.92,-91.15 -84.53,-170.48 -159.65,-227.32 -73.15,-55.35 -163.45,-89.04 -261.43,-91.24 -98.62,-2.21 -190.49,27.26 -265.77,79.07 -77.38,53.26 -137.45,130.07 -169.58,220.28 l -0.25,-0.08 c -11.48,32.49 -37.75,59.29 -73.27,70.07 -59.31,17.99 -121.99,-15.51 -139.98,-74.83 -27.92,-91.15 -84.54,-170.48 -159.66,-227.32 -73.15,-55.34 -163.44,-89.03 -261.42,-91.23 -98.62,-2.21 -190.49,27.25 -265.77,79.07 -77.39,53.26 -137.46,130.08 -169.59,220.27 l -0.25,-0.08 c -11.48,32.5 -37.75,59.3 -73.26,70.07 -59.32,17.99 -122,-15.51 -139.99,-74.83 -27.92,-91.15 -84.53,-170.48 -159.66,-227.32 -73.15,-55.35 -163.43,-89.04 -261.42,-91.24 -98.62,-2.21 -190.49,27.27 -265.77,79.08 -77.39,53.27 -137.46,130.08 -169.59,220.28 l -0.25,-0.08 c -11.48,32.49 -37.75,59.29 -73.26,70.07 -59.32,17.99 -122,-15.51 -139.99,-74.83 -27.92,-91.15 -84.53,-170.49 -159.66,-227.33 -73.15,-55.34 -163.43,-89.03 -261.42,-91.23 -69.32,-1.55 -135.56,12.72 -195.21,39.51 l -5.08,2.52 c -62.48,29.07 -117.12,71.72 -159.86,124.08 -6.39,8.39 -14.07,16.01 -23,22.56 -50.08,36.71 -120.45,25.88 -157.15,-24.2 -40.65,-55.38 -93.92,-101.32 -155.78,-133.55 z"
     id="path435" /><path
     class="fil21"
     d="m 15972.86,12596.97 c 219.54,0 397.53,177.98 397.53,397.53 0,219.54 -177.99,397.53 -397.53,397.53 -219.54,0 -397.53,-177.99 -397.53,-397.53 0,-219.55 177.99,-397.53 397.53,-397.53 z"
     id="path469"
     style="fill:#f48884;fill-opacity:1" /><path
     class="fil5"
     d="m 15973.3,12548.51 c 123.08,0 234.6,49.97 315.33,130.7 80.62,80.62 130.5,191.97 130.5,314.9 0,123.19 -49.96,234.75 -130.71,315.51 -80.85,80.85 -192.58,130.87 -316,130.87 -123.08,0 -234.58,-49.95 -315.34,-130.7 -80.62,-80.63 -130.5,-191.98 -130.5,-314.91 0,-123.19 49.96,-234.75 130.71,-315.49 80.85,-80.85 192.58,-130.88 316.01,-130.88 z m 245.97,199.1 c -63.12,-63.12 -150.4,-102.18 -246.85,-102.18 -96.12,0 -183.17,38.99 -246.18,102 -63.1,63.1 -102.16,150.34 -102.16,246.68 0,96.6 39.12,184.03 102.37,247.29 63.12,63.11 150.41,102.17 246.85,102.17 96.11,0 183.16,-38.99 246.18,-102 63.11,-63.11 102.16,-150.35 102.16,-246.69 0,-96.6 -39.13,-184.03 -102.37,-247.27 z"
     id="path471" /><path
     class="fil21"
     d="m 16518.38,13426.35 c 253.68,0 459.34,205.66 459.34,459.35 0,253.68 -205.66,459.34 -459.34,459.34 -253.69,0 -459.34,-205.66 -459.34,-459.34 0,-253.69 205.65,-459.35 459.34,-459.35 z"
     id="path473"
     style="fill:#5cc6d0;fill-opacity:1" /><path
     class="fil5"
     d="m 16518.89,13370.36 c 142.23,0 271.07,57.71 364.37,151.01 93.16,93.16 150.79,221.83 150.79,363.89 0,142.34 -57.73,271.25 -151.04,364.55 -93.41,93.42 -222.53,151.22 -365.14,151.22 -142.23,0 -271.07,-57.71 -364.37,-151.01 -93.17,-93.16 -150.79,-221.83 -150.79,-363.88 0,-142.35 57.73,-271.26 151.03,-364.56 93.41,-93.42 222.54,-151.22 365.15,-151.22 z m 284.21,230.06 c -72.93,-72.95 -173.78,-118.07 -285.23,-118.07 -111.07,0 -211.65,45.04 -284.46,117.86 -72.93,72.92 -118.04,173.71 -118.04,285.05 0,111.62 45.22,212.65 118.29,285.71 72.93,72.95 173.78,118.07 285.23,118.07 111.06,0 211.65,-45.04 284.45,-117.86 72.94,-72.92 118.05,-173.71 118.05,-285.04 0,-111.62 -45.22,-212.66 -118.29,-285.72 z"
     id="path475" /><path
     class="fil21"
     d="m 17454.41,13443.68 c 177.11,0 320.68,143.58 320.68,320.68 0,177.1 -143.57,320.67 -320.68,320.67 -177.09,0 -320.67,-143.57 -320.67,-320.67 0,-177.1 143.58,-320.68 320.67,-320.68 z"
     id="path477" /><path
     class="fil5"
     d="m 17454.77,13404.59 c 99.31,0 189.24,40.29 254.38,105.43 65.03,65.02 105.27,154.85 105.27,254.04 0,99.36 -40.31,189.36 -105.44,254.5 -65.22,65.22 -155.37,105.56 -254.93,105.56 -99.29,0 -189.22,-40.31 -254.36,-105.42 -65.03,-65.03 -105.28,-154.86 -105.28,-254.04 0,-99.36 40.31,-189.36 105.45,-254.49 65.22,-65.22 155.36,-105.58 254.91,-105.58 z m 198.42,160.6 c -50.91,-50.91 -121.32,-82.41 -199.14,-82.41 -77.52,0 -147.75,31.45 -198.58,82.28 -50.9,50.9 -82.41,121.28 -82.41,199 0,77.91 31.57,148.45 82.59,199.46 50.91,50.91 121.33,82.42 199.12,82.42 77.53,0 147.76,-31.45 198.6,-82.28 50.9,-50.9 82.4,-121.27 82.4,-199 0,-77.93 -31.56,-148.45 -82.58,-199.47 z"
     id="path479" /><path
     class="fil21"
     d="m 16899.74,14501.04 c 177.1,0 320.68,143.58 320.68,320.68 0,177.11 -143.58,320.68 -320.68,320.68 -177.11,0 -320.68,-143.57 -320.68,-320.68 0,-177.1 143.57,-320.68 320.68,-320.68 z"
     id="path481"
     style="fill:#fff688;fill-opacity:1" /><path
     class="fil5"
     d="m 16900.1,14461.95 c 99.29,0 189.24,40.31 254.37,105.43 65.02,65.03 105.27,154.86 105.27,254.04 0,99.36 -40.3,189.36 -105.45,254.49 -65.22,65.23 -155.35,105.58 -254.91,105.58 -99.28,0 -189.24,-40.29 -254.38,-105.43 -65.01,-65.02 -105.26,-154.85 -105.26,-254.04 0,-99.36 40.31,-189.36 105.45,-254.5 65.2,-65.22 155.35,-105.57 254.91,-105.57 z m 198.41,160.61 c -50.92,-50.92 -121.33,-82.43 -199.13,-82.43 -77.53,0 -147.77,31.47 -198.58,82.29 -50.91,50.91 -82.41,121.27 -82.41,199 0,77.92 31.57,148.45 82.57,199.47 50.92,50.91 121.33,82.41 199.14,82.41 77.53,0 147.75,-31.45 198.58,-82.28 50.9,-50.9 82.41,-121.28 82.41,-199 0,-77.91 -31.56,-148.44 -82.58,-199.46 z"
     id="path483" /><path
     class="fil21"
     d="m 17853.09,14102.38 c 253.69,0 459.35,205.66 459.35,459.34 0,253.69 -205.66,459.34 -459.35,459.34 -253.68,0 -459.35,-205.65 -459.35,-459.34 0,-253.68 205.67,-459.34 459.35,-459.34 z"
     id="path485" /><path
     class="fil5"
     d="m 17853.6,14046.39 c 142.23,0 271.08,57.71 364.37,151.01 93.17,93.16 150.8,221.83 150.8,363.88 0,142.35 -57.74,271.26 -151.04,364.56 -93.41,93.42 -222.54,151.22 -365.15,151.22 -142.22,0 -271.08,-57.72 -364.37,-151.01 -93.17,-93.16 -150.8,-221.83 -150.8,-363.89 0,-142.34 57.73,-271.26 151.04,-364.55 93.42,-93.42 222.54,-151.22 365.15,-151.22 z m 284.22,230.06 c -72.94,-72.95 -173.79,-118.07 -285.24,-118.07 -111.06,0 -211.65,45.04 -284.46,117.86 -72.93,72.92 -118.05,173.71 -118.05,285.04 0,111.62 45.22,212.66 118.29,285.72 72.94,72.94 173.8,118.07 285.24,118.07 111.07,0 211.66,-45.04 284.46,-117.86 72.93,-72.92 118.04,-173.72 118.04,-285.05 0,-111.62 -45.21,-212.66 -118.28,-285.71 z"
     id="path487" /></g><g
   id="g3248"
   transform="matrix(0.61759711,-0.10509982,0.10509982,0.61759711,13430.167,18348.194)"
   style="clip-rule:evenodd;fill-rule:evenodd;image-rendering:optimizeQuality;shape-rendering:geometricPrecision;text-rendering:geometricPrecision"><g
     id="g4516"
     transform="translate(79.533405,-467.36142)"><path
       class="st17"
       d="m 23975.736,16723.178 c -931.068,-607.219 -2091.266,-931.863 -3611.562,-812.536 0,0 -163.513,1384.565 674.158,2030.942 837.671,646.377 1977.231,296.069 2396.067,-59.002 418.835,-355.071 541.337,-1159.404 541.337,-1159.404 z"
       id="path162"
       style="clip-rule:evenodd;fill:#302616;fill-rule:evenodd;stroke:#030000;stroke-width:0;stroke-miterlimit:4;stroke-dasharray:none;stroke-opacity:1;filter:url(#filter4950)" /><path
       class="st14"
       d="m 23946.632,16704.392 c -908.844,-584.2 -2035.439,-899.848 -3498.85,-799.835 52.388,309.827 245.269,610.129 541.073,851.429 -200.554,52.917 -382.852,133.35 -537.104,238.125 92.604,344.487 266.435,699.823 586.846,947.208 837.671,646.377 1977.231,296.069 2396.066,-59.002 45.509,-38.629 87.313,-82.285 125.942,-129.91 -94.721,-197.115 -245.533,-382.852 -441.325,-542.661 347.133,-91.281 640.027,-265.906 827.352,-505.354 z"
       id="path164"
       style="clip-rule:evenodd;fill:#ffffff;fill-rule:evenodd;stroke:#fefefe;stroke-width:0;stroke-miterlimit:4;stroke-dasharray:none;stroke-opacity:1" /><line
       class="st18"
       x1="23119.279"
       y1="17210.012"
       x2="20988.59"
       y2="16755.986"
       id="line166"
       style="clip-rule:evenodd;fill:none;fill-rule:evenodd;stroke:#e6e7e8;stroke-width:33.3375;stroke-linecap:round;stroke-linejoin:round;stroke-miterlimit:22.9256" /></g></g><g
   id="g4511"
   transform="translate(14032.213,6529.1136)"
   style="clip-rule:evenodd;fill-rule:evenodd;image-rendering:optimizeQuality;shape-rendering:geometricPrecision;text-rendering:geometricPrecision"><path
     class="fil5"
     d="m 16581.3,17478.67 c 12.8,28.43 -0.1,61.97 -28.82,74.89 -28.72,12.92 -62.41,0.36 -75.21,-28.07 -32.25,-71.34 -98.39,-121.16 -181.67,-145.77 -89.47,-26.46 -198.08,-24.06 -307.35,11.13 -30.03,9.76 -62.18,-6.45 -71.79,-36.19 -9.61,-29.74 6.94,-61.78 36.97,-71.54 131.57,-42.38 264.27,-44.71 375.23,-11.9 114.28,33.78 206.11,104.57 252.64,207.45 z"
     id="path465"
     style="clip-rule:evenodd;fill-rule:evenodd;image-rendering:optimizeQuality;shape-rendering:geometricPrecision;text-rendering:geometricPrecision" /><path
     class="fil5"
     d="m 13229.7,17451.71 c -13.96,27.54 -47.82,38.72 -75.6,24.96 -27.79,-13.77 -39.01,-47.27 -25.04,-74.81 51.06,-100.64 145.99,-167.22 261.67,-195.84 112.14,-27.73 244.44,-19.45 373.88,28.77 29.07,10.84 43.72,42.99 32.71,71.8 -11.01,28.8 -43.51,43.36 -72.58,32.53 -107.66,-40.1 -216.22,-47.37 -306.97,-24.93 -84.31,20.85 -152.63,67.67 -188.07,137.52 z"
     id="path467"
     style="clip-rule:evenodd;fill-rule:evenodd;image-rendering:optimizeQuality;shape-rendering:geometricPrecision;text-rendering:geometricPrecision" /><g
     id="g3243"
     transform="translate(-8561.5983,-3738.706)"><g
       id="g3229"><path
         class="st14"
         d="m 25101.277,22112.862 c 0,0 90.222,-491.861 -390.261,-696.384 -896.673,-381.529 -1295.929,795.602 -506.412,884.502 536.839,60.325 896.673,-188.118 896.673,-188.118 z"
         id="path150"
         style="clip-rule:evenodd;fill:#ffffff;fill-rule:evenodd;stroke-width:26.4583" /><path
         class="st7"
         d="m 24285.566,22148.316 c 137.583,0 249.767,-112.183 249.767,-249.767 0,-137.583 -112.184,-249.766 -249.767,-249.766 -137.583,0 -249.767,112.183 -249.767,249.766 0,137.584 111.919,249.767 249.767,249.767 z"
         id="path264-9"
         style="clip-rule:evenodd;fill:#2c2515;fill-rule:evenodd;stroke-width:26.4583" /><path
         class="st14"
         d="m 24414.154,21890.876 c 66.675,0 121.179,-54.504 121.179,-121.179 0,-66.675 -54.504,-121.179 -121.179,-121.179 -66.675,0 -121.18,54.504 -121.18,121.179 0,66.675 54.24,121.179 121.18,121.179 z"
         id="path266-5"
         style="clip-rule:evenodd;fill:#ffffff;fill-rule:evenodd;stroke-width:26.4583" /><path
         class="st14"
         d="m 21719.901,22068.412 c 0,0 -90.222,-491.861 390.261,-696.384 896.673,-381.529 1295.929,795.602 506.412,884.502 -536.839,60.061 -896.673,-188.118 -896.673,-188.118 z"
         id="path268-7"
         style="clip-rule:evenodd;fill:#ffffff;fill-rule:evenodd;stroke-width:26.4583" /><path
         class="st7"
         d="m 22535.876,22103.601 c 137.584,0 249.767,-112.183 249.767,-249.766 0,-137.584 -112.183,-249.767 -249.767,-249.767 -137.583,0 -249.766,112.183 -249.766,249.767 -0.265,137.318 112.183,249.766 249.766,249.766 z"
         id="path272-5"
         style="clip-rule:evenodd;fill:#2c2515;fill-rule:evenodd;stroke-width:26.4583" /><path
         class="st14"
         d="m 22407.024,21846.162 c 66.675,0 121.18,-54.504 121.18,-121.179 0,-66.675 -54.505,-121.18 -121.18,-121.18 -66.675,0 -121.179,54.505 -121.179,121.18 0,66.675 54.504,121.179 121.179,121.179 z"
         id="path274-3"
         style="clip-rule:evenodd;fill:#ffffff;fill-rule:evenodd;stroke-width:26.4583" /></g></g></g><g
   id="g11720"
   transform="matrix(0.73755299,0,0,0.73755299,8530.582,6532.3977)"><path
     class="fil33"
     d="m 37193.514,18421.239 c 1864.39,0 3375.77,1511.38 3375.77,3375.77 0,1864.39 -1511.38,3375.77 -3375.77,3375.77 -1196.54,0 -2247.67,-622.52 -2847.15,-1561.38 l -995.42,143.48 689.6,-749.93 c -143.79,-375.09 -222.8,-782.26 -222.8,-1207.94 0,-1864.39 1511.38,-3375.77 3375.77,-3375.77 z"
     id="path403-8"
     style="clip-rule:evenodd;fill:#fefefe;fill-rule:evenodd;image-rendering:optimizeQuality;shape-rendering:geometricPrecision;text-rendering:geometricPrecision" /><path
     class="fil3"
     d="m 37158.924,18366.679 c 944.9,0 1805.38,388.02 2432.7,1015.35 633.83,633.82 1025.87,1502.03 1025.87,2454.32 0,937.26 -379.45,1785.36 -992.93,2398.83 -612.99,612.99 -1460.26,992.16 -2396.46,992.16 -592.93,0 -1151.9,-152.22 -1639.98,-419.88 -496.66,-272.36 -921.3,-663.84 -1236.68,-1137.01 l -963.27,138.85 c -16.83,2.49 -47.15,-19.86 -67.71,-49.91 -17.2,-25.14 -22.12,-47.72 -13.41,-55.88 l 681.25,-740.86 c -70.44,-187.49 -125,-382.31 -161.98,-582.79 -37.28,-202.13 -56.79,-410.1 -56.79,-622.19 0,-937.27 379.46,-1785.36 992.93,-2398.83 612.99,-613.01 1460.27,-992.16 2396.46,-992.16 z m 2410.54,1071.25 c -594.44,-594.45 -1421.87,-962.13 -2341.36,-962.13 -928.18,0 -1768.83,376.54 -2377.6,985.32 -608.29,608.29 -984.55,1448.11 -984.55,2375.23 0,208.15 19,411.44 55.29,608.23 37.03,200.73 91.97,394.71 163,580.18 5.4,13.69 6.08,25.19 0.72,30.99 l -565.58,615.07 788.79,-113.7 c 1.01,-0.21 2.1,-0.33 3.27,-0.35 18.3,-0.28 48.78,23.94 68.06,54.11 291.45,456.45 696.97,835.87 1177.74,1099.52 474.06,259.98 1019.81,407.82 1601.68,407.82 928.19,0 1768.83,-376.55 2377.6,-985.32 608.3,-608.29 984.55,-1448.12 984.55,-2375.23 0,-912.09 -363.66,-1731.8 -951.61,-2319.74 z"
     id="path405-6"
     style="clip-rule:evenodd;fill:#362120;fill-opacity:1;fill-rule:nonzero;image-rendering:optimizeQuality;shape-rendering:geometricPrecision;text-rendering:geometricPrecision" /></g><text
   xml:space="preserve"
   style="font-style:normal;font-weight:normal;font-size:1662.7px;line-height:1.25;font-family:sans-serif;fill:#362120;fill-opacity:1;stroke:none;stroke-width:41.5677"
   x="33849.922"
   y="23246.609"
   id="text13330"><tspan
     sodipodi:role="line"
     id="tspan13328"
     style="font-style:normal;font-variant:normal;font-weight:normal;font-stretch:normal;font-family:Bangers;-inkscape-font-specification:Bangers;fill:#362120;fill-opacity:1;stroke-width:41.5677"
     x="33849.922"
     y="23246.609">Yummy</tspan></text></g>
</svg>
